<svg xmlns="http://www.w3.org/2000/svg" width="1100" height="1000">

    <defs>

        <clipPath id="part1">

            <path d="M392 0 L701 532 L339 532
                     L262 666 L906 666 L532 0 L392 0 Z" />

        </clipPath>

        <clipPath id="part2">

            <path d="M392 0 L701 532 L570 532
                     L392 234 L70 796 L4 666 L392 0 Z" />

        </clipPath>

        <clipPath id="part3">

            <path d="M392 234 L70 796 L844 796 L906 666
                     L264 666 L451 331 L392 234 Z" />

        </clipPath>

        <pattern id="pattern1" width="50" height="50"
            patternUnits="userSpaceOnUse" patternTransform="rotate(-45)">

            <rect width="50" height="50" fill="#6fcee4" />

            <circle cx="25" cy="25" r="20" fill="#5987c3" />

        </pattern>

        <pattern id="pattern2" width="50" height="50"
            patternUnits="userSpaceOnUse" patternTransform="rotate(-45)">

            <rect width="50" height="50" fill="#ca2e93" />

            <rect y="25" width="50" height="25" fill="#a40233" />

        </pattern>

        <pattern id="pattern3" width="50" height="50"
            patternUnits="userSpaceOnUse" patternTransform="rotate(45)">

            <rect width="50" height="50" fill="#fff001" />

            <rect y="25" width="50" height="25" fill="#f78934" />

        </pattern>

    </defs>

    <rect width="100%" height="100%" fill="#79e0f9" />

    <g transform="translate(100, 100)">

        <g style="clip-path: url(#part1);">
            <rect width="100%" height="100%" fill="url(#pattern1)" />
        </g>

        <g style="clip-path: url(#part2);">
            <rect width="100%" height="100%" fill="url(#pattern2)" />
        </g>

        <g style="clip-path: url(#part3);">
            <rect width="100%" height="100%" fill="url(#pattern3)" />
        </g>

        <g stroke="black" stroke-width="15" fill="none">

            <path d="M392 0 L532 0 L906 666
                     L844 796 L70 796 L4 666 Z" />
            <path d="M392 0 L701 532 L339 532
                     M906 666 L264 666 L450 332
                     M70 796 L392 234 L570 532" />

        </g>

    </g>

</svg>